<?xml version="1.0" encoding="iso-8859-1"?>
<!-- Generator: Adobe Illustrator 16.0.0, SVG Export Plug-In . SVG Version: 6.00 Build 0)  -->
<!DOCTYPE svg PUBLIC "-//W3C//DTD SVG 1.1//EN" "http://www.w3.org/Graphics/SVG/1.1/DTD/svg11.dtd">
<svg version="1.1" id="Capa_1" xmlns="http://www.w3.org/2000/svg" xmlns:xlink="http://www.w3.org/1999/xlink" x="0px" y="0px"
	 width="18px" height="18px" viewBox="0 0 540.019 540.019" style="enable-background:new 0 0 540.019 540.019;"
	 xml:space="preserve" fill="currentColor">
<g>
	<g>
		<path d="M290.876,103.039c-30.985,0-57.708,2.843-80.356,9.541C108.416,138.829,0,274.377,0,274.377S138.49,436.98,249.154,436.98
			c30.979,0,57.708-2.849,80.351-9.552c102.104-26.25,210.514-161.781,210.514-161.781S401.54,103.039,290.876,103.039z
			 M263.756,383.826c-59.442,0-107.616-48.18-107.616-107.616c0-59.448,48.174-107.622,107.616-107.622
			c59.442,0,107.622,48.174,107.622,107.622C371.378,335.646,323.198,383.826,263.756,383.826z"/>
		<path d="M266.646,225.292c1.757,3.275,2.849,6.959,2.849,10.941c0,12.874-10.451,23.313-23.319,23.313
			c-10.124,0-18.666-6.504-21.883-15.519c-7.146,8.775-11.607,19.839-11.607,32.042c0,28.201,22.864,51.076,51.07,51.076
			s51.07-22.863,51.07-51.076C314.826,248.845,293.469,226.833,266.646,225.292z"/>
	</g>
</g>
<g>
</g>
<g>
</g>
<g>
</g>
<g>
</g>
<g>
</g>
<g>
</g>
<g>
</g>
<g>
</g>
<g>
</g>
<g>
</g>
<g>
</g>
<g>
</g>
<g>
</g>
<g>
</g>
<g>
</g>
</svg>
